<svg width="1569" height="668" viewBox="0 0 1569 668" fill="none" xmlns="http://www.w3.org/2000/svg">
<rect width="1569" height="668" fill="#F5F5F5"/>
<g clip-path="url(#clip0_0_1)">
<rect width="1569" height="668" fill="white"/>
<rect x="111" y="133" width="702.123" height="268.028" transform="rotate(13 111 133)" fill="#9A7979"/>
<path d="M189.953 194.797L172.775 269.203L163.764 267.123L178.762 202.163L178.326 202.062L157.375 209.93L159.489 200.775L180.943 192.717L189.953 194.797ZM218.208 280.764C212.734 279.5 208.416 276.934 205.252 273.066C202.095 269.173 200.155 264.146 199.435 257.985C198.72 251.799 199.297 244.661 201.164 236.571C203.021 228.53 205.623 221.898 208.972 216.676C212.35 211.435 216.312 207.758 220.856 205.643C225.431 203.51 230.43 203.07 235.856 204.323C241.281 205.575 245.57 208.16 248.722 212.077C251.904 215.975 253.853 221.017 254.568 227.203C255.312 233.37 254.756 240.474 252.9 248.515C251.032 256.605 248.421 263.273 245.067 268.52C241.718 273.742 237.772 277.41 233.227 279.524C228.688 281.614 223.682 282.028 218.208 280.764ZM220.053 272.771C225.479 274.023 230.297 272.381 234.508 267.842C238.72 263.304 241.944 256.191 244.18 246.502C245.668 240.06 246.244 234.414 245.909 229.566C245.598 224.724 244.433 220.819 242.414 217.853C240.419 214.892 237.629 212.998 234.044 212.17C228.667 210.929 223.853 212.611 219.6 217.216C215.354 221.798 212.115 228.92 209.884 238.584C208.396 245.027 207.811 250.657 208.127 255.476C208.443 260.294 209.602 264.171 211.603 267.108C213.628 270.05 216.445 271.938 220.053 272.771ZM282.151 295.526C276.677 294.262 272.359 291.696 269.195 287.828C266.038 283.936 264.099 278.909 263.378 272.747C262.663 266.561 263.24 259.423 265.107 251.334C266.964 243.292 269.566 236.661 272.915 231.438C276.293 226.198 280.255 222.52 284.799 220.406C289.374 218.273 294.374 217.833 299.799 219.085C305.224 220.338 309.513 222.922 312.665 226.839C315.847 230.737 317.796 235.779 318.511 241.965C319.255 248.132 318.699 255.236 316.843 263.278C314.975 271.368 312.364 278.036 309.01 283.282C305.661 288.504 301.715 292.172 297.17 294.287C292.632 296.377 287.625 296.79 282.151 295.526ZM283.996 287.533C289.422 288.786 294.24 287.143 298.452 282.605C302.663 278.066 305.887 270.953 308.123 261.265C309.611 254.822 310.187 249.177 309.852 244.329C309.542 239.486 308.376 235.582 306.357 232.615C304.362 229.655 301.572 227.76 297.987 226.933C292.61 225.691 287.796 227.373 283.543 231.979C279.297 236.56 276.058 243.683 273.827 253.347C272.339 259.789 271.754 265.42 272.07 270.238C272.386 275.056 273.545 278.934 275.546 281.87C277.571 284.812 280.388 286.7 283.996 287.533Z" fill="#442020"/>
<path d="M590.199 419.266L577.111 475.957L570.246 474.372L581.673 424.879L581.341 424.802L565.379 430.797L566.989 423.821L583.335 417.681L590.199 419.266ZM611.727 484.765C607.557 483.802 604.266 481.847 601.856 478.9C599.45 475.934 597.973 472.104 597.424 467.41C596.879 462.697 597.319 457.258 598.742 451.095C600.156 444.968 602.139 439.915 604.69 435.936C607.264 431.943 610.283 429.141 613.745 427.53C617.23 425.905 621.04 425.57 625.173 426.524C629.307 427.479 632.575 429.448 634.976 432.432C637.401 435.402 638.885 439.244 639.43 443.957C639.997 448.655 639.574 454.068 638.159 460.195C636.736 466.358 634.747 471.439 632.191 475.436C629.64 479.415 626.633 482.21 623.171 483.821C619.712 485.413 615.898 485.728 611.727 484.765ZM613.133 478.675C617.267 479.63 620.938 478.378 624.147 474.92C627.355 471.462 629.812 466.043 631.516 458.661C632.649 453.752 633.088 449.451 632.833 445.757C632.596 442.068 631.709 439.093 630.17 436.833C628.65 434.577 626.524 433.134 623.793 432.503C619.696 431.558 616.028 432.839 612.788 436.348C609.553 439.838 607.085 445.265 605.385 452.628C604.252 457.537 603.806 461.827 604.047 465.498C604.287 469.169 605.17 472.123 606.695 474.361C608.237 476.602 610.384 478.04 613.133 478.675ZM660.446 496.013C656.275 495.05 652.985 493.095 650.575 490.147C648.169 487.182 646.691 483.352 646.143 478.657C645.598 473.944 646.037 468.506 647.46 462.342C648.874 456.215 650.857 451.163 653.409 447.184C655.983 443.191 659.001 440.389 662.464 438.778C665.949 437.153 669.758 436.818 673.892 437.772C678.026 438.726 681.293 440.695 683.695 443.68C686.119 446.65 687.604 450.491 688.148 455.204C688.716 459.903 688.292 465.316 686.878 471.442C685.455 477.606 683.465 482.686 680.91 486.684C678.359 490.663 675.352 493.457 671.889 495.068C668.431 496.661 664.617 496.975 660.446 496.013ZM661.852 489.923C665.986 490.877 669.657 489.625 672.865 486.168C676.074 482.71 678.53 477.29 680.234 469.909C681.368 465 681.807 460.699 681.551 457.005C681.315 453.315 680.427 450.341 678.888 448.081C677.368 445.825 675.243 444.382 672.511 443.751C668.415 442.805 664.746 444.087 661.507 447.596C658.271 451.086 655.803 456.513 654.103 463.876C652.97 468.785 652.524 473.075 652.765 476.746C653.006 480.417 653.889 483.371 655.413 485.608C656.956 487.85 659.102 489.288 661.852 489.923Z" fill="#442020"/>
<path d="M292.871 426.127C290.878 425.667 289.27 424.8 288.048 423.527C286.826 422.254 286.018 420.702 285.624 418.871C285.23 417.04 285.279 415.064 285.769 412.942C286.267 410.783 287.104 408.969 288.278 407.5C289.465 406.025 290.88 404.986 292.526 404.385C294.182 403.776 295.97 403.693 297.89 404.136C299.384 404.481 300.668 405.069 301.739 405.899C302.811 406.73 303.615 407.732 304.151 408.905C304.686 410.079 304.893 411.351 304.771 412.722L301.505 411.968C301.479 410.942 301.124 409.956 300.438 409.01C299.764 408.058 298.707 407.415 297.268 407.083C295.994 406.789 294.801 406.863 293.688 407.306C292.586 407.742 291.63 408.498 290.818 409.574C290.017 410.642 289.431 411.98 289.06 413.585C288.681 415.228 288.609 416.717 288.845 418.055C289.09 419.394 289.609 420.51 290.404 421.403C291.208 422.298 292.256 422.895 293.548 423.193C294.397 423.389 295.202 423.419 295.962 423.284C296.722 423.148 297.406 422.859 298.014 422.416C298.621 421.974 299.116 421.388 299.498 420.66L302.764 421.414C302.29 422.626 301.572 423.651 300.611 424.489C299.661 425.319 298.523 425.892 297.197 426.208C295.881 426.516 294.439 426.49 292.871 426.127ZM308.638 410.116L309.341 407.071L326.614 411.059L325.911 414.104L318.935 412.493L314.73 430.708L311.464 429.953L315.669 411.739L308.638 410.116ZM333.901 435.6C331.982 435.157 330.403 434.311 329.165 433.063C327.937 431.818 327.106 430.28 326.673 428.45C326.25 426.622 326.292 424.61 326.799 422.414C327.31 420.2 328.158 418.359 329.342 416.893C330.535 415.429 331.957 414.406 333.607 413.825C335.266 413.246 337.056 413.178 338.975 413.621C340.894 414.064 342.468 414.909 343.697 416.155C344.934 417.402 345.764 418.945 346.185 420.782C346.616 422.621 346.576 424.648 346.065 426.862C345.558 429.058 344.709 430.884 343.517 432.339C342.335 433.796 340.915 434.814 339.255 435.393C337.605 435.974 335.82 436.043 333.901 435.6ZM334.578 432.666C336.036 433.002 337.322 432.906 338.436 432.375C339.549 431.845 340.473 431.024 341.206 429.91C341.939 428.796 342.47 427.529 342.798 426.108C343.126 424.687 343.206 423.311 343.037 421.979C342.868 420.648 342.401 419.495 341.634 418.521C340.868 417.547 339.756 416.892 338.298 416.555C336.84 416.219 335.553 416.32 334.437 416.86C333.321 417.399 332.396 418.23 331.66 419.353C330.925 420.476 330.393 421.747 330.065 423.168C329.737 424.589 329.658 425.961 329.829 427.283C330 428.606 330.47 429.749 331.239 430.714C332.007 431.679 333.12 432.329 334.578 432.666ZM357.743 449.035L364.492 419.804L367.647 420.532L366.868 423.909L367.255 423.999C367.58 423.685 368.021 423.291 368.578 422.817C369.146 422.336 369.883 421.962 370.79 421.695C371.709 421.421 372.86 421.444 374.244 421.764C376.034 422.177 377.509 422.989 378.668 424.199C379.827 425.409 380.599 426.924 380.986 428.743C381.373 430.563 381.308 432.589 380.793 434.822C380.273 437.073 379.44 438.936 378.292 440.411C377.147 441.876 375.792 442.905 374.227 443.496C372.664 444.078 370.997 444.164 369.225 443.755C367.86 443.44 366.818 442.961 366.102 442.32C365.387 441.669 364.875 441.002 364.567 440.318C364.26 439.625 364.032 439.057 363.881 438.614L363.604 438.551L361.01 449.789L357.743 449.035ZM365.249 431.175C364.878 432.78 364.786 434.251 364.974 435.587C365.163 436.913 365.63 438.027 366.375 438.928C367.121 439.819 368.15 440.416 369.46 440.719C370.825 441.034 372.048 440.937 373.128 440.428C374.219 439.913 375.136 439.094 375.881 437.974C376.637 436.846 377.19 435.525 377.539 434.012C377.884 432.517 377.965 431.117 377.78 429.811C377.607 428.498 377.14 427.384 376.379 426.47C375.63 425.548 374.563 424.928 373.179 424.608C371.85 424.302 370.656 424.381 369.596 424.846C368.539 425.301 367.641 426.075 366.903 427.168C366.167 428.252 365.615 429.588 365.249 431.175ZM382.836 454.828C382.282 454.7 381.8 454.54 381.387 454.348C380.973 454.165 380.692 454.012 380.545 453.891L382.04 451.204C382.787 451.59 383.471 451.826 384.093 451.911C384.714 451.996 385.317 451.849 385.901 451.468C386.491 451.099 387.109 450.421 387.755 449.433L388.748 447.912L385.82 424.728L389.363 425.546L391.32 443.841L391.542 443.893L401.321 428.307L404.865 429.125L390.217 451.401C389.557 452.405 388.845 453.198 388.079 453.779C387.311 454.369 386.489 454.748 385.615 454.916C384.75 455.085 383.823 455.056 382.836 454.828ZM426.795 425.791L427.995 428.167C427.205 428.645 426.356 428.911 425.45 428.964C424.543 429.017 423.548 428.948 422.465 428.756C421.382 428.565 420.179 428.345 418.856 428.098C417.367 427.813 416.061 427.89 414.939 428.331C413.817 428.771 412.848 429.559 412.032 430.692C411.217 431.825 410.524 433.289 409.955 435.081L410.232 435.145C411.258 433.983 412.48 433.235 413.898 432.901C415.317 432.568 416.755 432.569 418.213 432.906C419.873 433.289 421.279 434.022 422.428 435.104C423.578 436.186 424.365 437.577 424.788 439.279C425.212 440.98 425.166 442.947 424.651 445.18C424.137 447.404 423.297 449.231 422.131 450.663C420.974 452.097 419.584 453.088 417.96 453.636C416.348 454.178 414.592 454.229 412.691 453.79C410.791 453.351 409.228 452.519 408.005 451.294C406.783 450.06 405.98 448.465 405.596 446.51C405.214 444.546 405.325 442.254 405.93 439.634L406.454 437.364C407.547 432.63 409.178 429.226 411.348 427.152C413.527 425.079 416.246 424.376 419.504 425.04C420.656 425.268 421.678 425.494 422.569 425.719C423.46 425.944 424.249 426.082 424.937 426.134C425.624 426.186 426.244 426.072 426.795 425.791ZM413.369 450.856C414.651 451.152 415.828 451.084 416.9 450.651C417.981 450.22 418.906 449.476 419.675 448.42C420.446 447.353 421.016 446.022 421.384 444.426C421.742 442.876 421.793 441.498 421.537 440.292C421.29 439.088 420.767 438.093 419.967 437.305C419.167 436.518 418.116 435.974 416.815 435.674C415.865 435.455 414.974 435.419 414.143 435.567C413.312 435.716 412.556 436.042 411.876 436.546C411.196 437.049 410.604 437.719 410.1 438.555C409.605 439.394 409.215 440.392 408.928 441.55C408.378 443.931 408.497 445.965 409.283 447.653C410.069 449.341 411.431 450.409 413.369 450.856ZM425.375 456.252L426.078 453.207L426.853 453.386C427.489 453.533 428.049 453.531 428.531 453.38C429.015 453.219 429.459 452.851 429.865 452.274C430.281 451.689 430.691 450.841 431.094 449.729C431.507 448.61 431.952 447.167 432.428 445.401L434.988 436.079L449.161 439.351L444.253 460.61L440.987 459.856L445.192 441.642L437.386 439.84L435.302 447.348C434.826 449.075 434.314 450.575 433.768 451.848C433.233 453.114 432.622 454.139 431.935 454.924C431.258 455.71 430.475 456.239 429.586 456.51C428.698 456.781 427.663 456.78 426.482 456.507L425.375 456.252ZM459.057 464.495C457.009 464.022 455.346 463.162 454.069 461.914C452.804 460.66 451.958 459.124 451.532 457.305C451.118 455.48 451.162 453.478 451.665 451.3C452.168 449.123 453.008 447.295 454.185 445.818C455.373 444.333 456.79 443.289 458.435 442.688C460.092 442.079 461.88 441.996 463.799 442.439C464.906 442.695 465.957 443.132 466.951 443.75C467.946 444.368 468.79 445.195 469.484 446.23C470.18 447.256 470.635 448.507 470.847 449.985C471.06 451.463 470.938 453.194 470.48 455.178L470.16 456.562L453.773 452.778L454.425 449.955L467.49 452.971C467.767 451.772 467.774 450.646 467.512 449.594C467.259 448.544 466.756 447.646 466.006 446.899C465.264 446.155 464.303 445.646 463.122 445.373C461.821 445.073 460.62 445.136 459.521 445.562C458.433 445.982 457.517 446.645 456.773 447.552C456.029 448.459 455.521 449.499 455.251 450.67L454.816 452.553C454.446 454.158 454.408 455.583 454.704 456.827C455.011 458.065 455.596 459.089 456.459 459.9C457.323 460.702 458.415 461.256 459.734 461.56C460.592 461.758 461.395 461.817 462.143 461.737C462.901 461.65 463.591 461.42 464.211 461.049C464.834 460.668 465.369 460.14 465.816 459.466L468.767 461.08C468.188 462.074 467.412 462.886 466.441 463.517C465.471 464.138 464.357 464.542 463.099 464.728C461.844 464.905 460.496 464.827 459.057 464.495ZM477.309 463.169L491.347 449.091L495.111 449.96L490.203 471.219L486.937 470.465L490.733 454.022L476.75 468.113L472.93 467.231L477.838 445.972L481.105 446.726L477.309 463.169ZM490.824 441.506L493.869 442.209C493.524 443.704 492.725 444.807 491.472 445.519C490.219 446.23 488.707 446.382 486.935 445.973C485.191 445.57 483.912 444.774 483.098 443.585C482.293 442.399 482.064 441.058 482.409 439.563L485.454 440.266C485.287 440.986 485.34 441.664 485.611 442.3C485.891 442.938 486.516 443.369 487.485 443.592C488.454 443.816 489.208 443.704 489.749 443.255C490.299 442.809 490.658 442.226 490.824 441.506Z" fill="#442020"/>
<rect x="855.293" y="156" width="702.123" height="268.028" transform="rotate(13 855.293 156)" fill="#55DEE7"/>
<path d="M991.932 215.415L975.899 284.861L967.49 282.92L981.487 222.29L981.08 222.196L961.527 229.54L963.5 220.995L983.523 213.474L991.932 215.415ZM1018.3 295.651C1013.2 294.472 1009.16 292.077 1006.21 288.466C1003.26 284.834 1001.45 280.142 1000.78 274.391C1000.12 268.617 1000.65 261.955 1002.4 254.405C1004.13 246.9 1006.56 240.71 1009.68 235.836C1012.84 230.945 1016.53 227.512 1020.78 225.539C1025.04 223.548 1029.71 223.137 1034.78 224.306C1039.84 225.475 1043.84 227.888 1046.78 231.543C1049.75 235.182 1051.57 239.887 1052.24 245.661C1052.93 251.417 1052.42 258.048 1050.68 265.553C1048.94 273.103 1046.5 279.327 1043.37 284.223C1040.25 289.097 1036.56 292.521 1032.32 294.494C1028.09 296.445 1023.41 296.831 1018.3 295.651ZM1020.03 288.191C1025.09 289.36 1029.59 287.827 1033.52 283.591C1037.45 279.355 1040.46 272.716 1042.54 263.674C1043.93 257.661 1044.47 252.392 1044.16 247.867C1043.87 243.347 1042.78 239.703 1040.9 236.934C1039.03 234.171 1036.43 232.403 1033.08 231.631C1028.07 230.472 1023.57 232.042 1019.6 236.34C1015.64 240.616 1012.62 247.264 1010.53 256.284C1009.15 262.297 1008.6 267.552 1008.89 272.049C1009.19 276.546 1010.27 280.165 1012.14 282.906C1014.03 285.652 1016.66 287.414 1020.03 288.191ZM1077.98 309.43C1072.88 308.25 1068.84 305.855 1065.89 302.245C1062.94 298.612 1061.14 293.92 1060.46 288.169C1059.8 282.396 1060.33 275.734 1062.08 268.183C1063.81 260.678 1066.24 254.488 1069.36 249.614C1072.52 244.723 1076.21 241.29 1080.46 239.317C1084.73 237.326 1089.39 236.916 1094.46 238.085C1099.52 239.254 1103.52 241.666 1106.46 245.322C1109.43 248.96 1111.25 253.666 1111.92 259.439C1112.61 265.195 1112.1 271.826 1110.36 279.331C1108.62 286.881 1106.18 293.105 1103.05 298.002C1099.93 302.876 1096.24 306.299 1092 308.273C1087.77 310.223 1083.09 310.609 1077.98 309.43ZM1079.71 301.97C1084.77 303.139 1089.27 301.605 1093.2 297.37C1097.13 293.134 1100.14 286.495 1102.22 277.452C1103.61 271.439 1104.15 266.17 1103.84 261.645C1103.55 257.125 1102.46 253.481 1100.58 250.713C1098.71 247.949 1096.11 246.181 1092.76 245.409C1087.75 244.25 1083.25 245.82 1079.28 250.119C1075.32 254.394 1072.3 261.042 1070.21 270.062C1068.83 276.075 1068.28 281.33 1068.58 285.827C1068.87 290.324 1069.95 293.943 1071.82 296.684C1073.71 299.43 1076.34 301.192 1079.71 301.97ZM1137.66 323.208C1132.56 322.028 1128.52 319.633 1125.57 316.023C1122.63 312.39 1120.82 307.698 1120.14 301.947C1119.48 296.174 1120.01 289.512 1121.76 281.961C1123.49 274.456 1125.92 268.267 1129.04 263.393C1132.2 258.501 1135.89 255.069 1140.14 253.095C1144.41 251.105 1149.07 250.694 1154.14 251.863C1159.2 253.032 1163.2 255.444 1166.14 259.1C1169.11 262.738 1170.93 267.444 1171.6 273.217C1172.29 278.973 1171.78 285.604 1170.04 293.109C1168.3 300.66 1165.86 306.883 1162.73 311.78C1159.61 316.654 1155.92 320.078 1151.68 322.051C1147.45 324.002 1142.77 324.387 1137.66 323.208ZM1139.39 315.748C1144.45 316.917 1148.95 315.384 1152.88 311.148C1156.81 306.912 1159.82 300.273 1161.91 291.23C1163.29 285.217 1163.83 279.948 1163.52 275.423C1163.23 270.904 1162.14 267.26 1160.26 264.491C1158.39 261.728 1155.79 259.96 1152.44 259.187C1147.43 258.029 1142.93 259.599 1138.96 263.897C1135 268.173 1131.98 274.82 1129.89 283.84C1128.51 289.854 1127.96 295.109 1128.26 299.606C1128.55 304.103 1129.63 307.722 1131.5 310.462C1133.39 313.208 1136.02 314.97 1139.39 315.748Z" fill="#3A999F"/>
<path d="M1334.01 442.266L1320.92 498.957L1314.05 497.372L1325.48 447.879L1325.15 447.802L1309.19 453.797L1310.8 446.821L1327.14 440.681L1334.01 442.266ZM1355.53 507.765C1351.36 506.802 1348.07 504.847 1345.66 501.9C1343.26 498.934 1341.78 495.104 1341.23 490.41C1340.69 485.697 1341.13 480.258 1342.55 474.095C1343.96 467.968 1345.95 462.915 1348.5 458.936C1351.07 454.943 1354.09 452.141 1357.55 450.53C1361.04 448.905 1364.85 448.57 1368.98 449.524C1373.11 450.479 1376.38 452.448 1378.78 455.432C1381.21 458.402 1382.69 462.244 1383.24 466.957C1383.8 471.655 1383.38 477.068 1381.97 483.195C1380.54 489.358 1378.55 494.439 1376 498.436C1373.45 502.415 1370.44 505.21 1366.98 506.821C1363.52 508.413 1359.71 508.728 1355.53 507.765ZM1356.94 501.675C1361.07 502.63 1364.75 501.378 1367.95 497.92C1371.16 494.462 1373.62 489.043 1375.32 481.661C1376.46 476.752 1376.9 472.451 1376.64 468.757C1376.4 465.068 1375.52 462.093 1373.98 459.833C1372.46 457.577 1370.33 456.134 1367.6 455.503C1363.5 454.558 1359.84 455.839 1356.6 459.348C1353.36 462.838 1350.89 468.265 1349.19 475.628C1348.06 480.537 1347.61 484.827 1347.85 488.498C1348.09 492.169 1348.98 495.123 1350.5 497.361C1352.04 499.602 1354.19 501.04 1356.94 501.675ZM1404.25 519.013C1400.08 518.05 1396.79 516.095 1394.38 513.147C1391.98 510.182 1390.5 506.352 1389.95 501.657C1389.41 496.944 1389.84 491.506 1391.27 485.342C1392.68 479.215 1394.66 474.163 1397.22 470.184C1399.79 466.191 1402.81 463.389 1406.27 461.778C1409.76 460.153 1413.57 459.818 1417.7 460.772C1421.83 461.726 1425.1 463.695 1427.5 466.68C1429.93 469.65 1431.41 473.491 1431.96 478.204C1432.52 482.903 1432.1 488.316 1430.69 494.442C1429.26 500.606 1427.27 505.686 1424.72 509.684C1422.17 513.663 1419.16 516.457 1415.7 518.068C1412.24 519.661 1408.42 519.975 1404.25 519.013ZM1405.66 512.923C1409.79 513.877 1413.46 512.625 1416.67 509.168C1419.88 505.71 1422.34 500.29 1424.04 492.909C1425.17 488 1425.61 483.699 1425.36 480.005C1425.12 476.315 1424.23 473.341 1422.7 471.081C1421.18 468.825 1419.05 467.382 1416.32 466.751C1412.22 465.805 1408.55 467.087 1405.31 470.596C1402.08 474.086 1399.61 479.513 1397.91 486.876C1396.78 491.785 1396.33 496.075 1396.57 499.746C1396.81 503.417 1397.7 506.371 1399.22 508.608C1400.76 510.85 1402.91 512.288 1405.66 512.923ZM1452.97 530.26C1448.8 529.297 1445.51 527.342 1443.1 524.395C1440.69 521.429 1439.22 517.599 1438.67 512.905C1438.12 508.192 1438.56 502.753 1439.99 496.59C1441.4 490.463 1443.38 485.41 1445.93 481.431C1448.51 477.438 1451.53 474.636 1454.99 473.026C1458.47 471.4 1462.28 471.065 1466.42 472.019C1470.55 472.974 1473.82 474.943 1476.22 477.927C1478.65 480.897 1480.13 484.739 1480.67 489.452C1481.24 494.15 1480.82 499.563 1479.4 505.69C1477.98 511.854 1475.99 516.934 1473.44 520.931C1470.88 524.91 1467.88 527.705 1464.42 529.316C1460.96 530.908 1457.14 531.223 1452.97 530.26ZM1454.38 524.17C1458.51 525.125 1462.18 523.873 1465.39 520.415C1468.6 516.957 1471.06 511.538 1472.76 504.156C1473.89 499.247 1474.33 494.946 1474.08 491.252C1473.84 487.563 1472.95 484.588 1471.41 482.328C1469.89 480.072 1467.77 478.629 1465.04 477.999C1460.94 477.053 1457.27 478.334 1454.03 481.843C1450.8 485.334 1448.33 490.76 1446.63 498.123C1445.5 503.032 1445.05 507.322 1445.29 510.993C1445.53 514.664 1446.41 517.618 1447.94 519.856C1449.48 522.097 1451.63 523.536 1454.38 524.17Z" fill="#3A999F"/>
<path d="M902.592 421.127C900.672 420.684 899.094 419.839 897.856 418.591C896.628 417.345 895.797 415.807 895.364 413.977C894.941 412.15 894.982 410.138 895.489 407.942C896.001 405.727 896.848 403.887 898.032 402.421C899.226 400.956 900.647 399.934 902.298 399.353C903.957 398.774 905.747 398.706 907.666 399.149C909.585 399.592 911.159 400.436 912.387 401.682C913.625 402.93 914.455 404.472 914.876 406.309C915.307 408.148 915.267 410.175 914.755 412.39C914.248 414.586 913.399 416.411 912.208 417.866C911.026 419.323 909.605 420.341 907.946 420.92C906.296 421.501 904.511 421.57 902.592 421.127ZM903.269 418.193C904.727 418.53 906.013 418.433 907.126 417.903C908.24 417.373 909.164 416.551 909.897 415.437C910.63 414.324 911.161 413.057 911.489 411.636C911.817 410.215 911.897 408.838 911.728 407.507C911.559 406.175 911.091 405.022 910.325 404.049C909.558 403.075 908.446 402.419 906.988 402.083C905.531 401.746 904.244 401.848 903.128 402.387C902.012 402.926 901.086 403.757 900.351 404.88C899.615 406.003 899.084 407.275 898.756 408.696C898.428 410.117 898.349 411.488 898.52 412.811C898.691 414.133 899.161 415.277 899.929 416.241C900.698 417.206 901.811 417.857 903.269 418.193ZM913.637 429.625L915.746 420.491L917.518 420.9C918.056 420.548 918.542 420.145 918.977 419.691C919.413 419.238 919.828 418.678 920.225 418.011C920.634 417.338 921.041 416.499 921.448 415.495C921.857 414.481 922.297 413.246 922.769 411.791L925.432 403.542L938.94 406.661L934.735 424.875L938.002 425.629L935.893 434.763L932.626 434.009L934.032 427.92L918.309 424.29L916.903 430.379L913.637 429.625ZM921.227 421.756L931.469 424.121L934.971 408.951L927.774 407.29L925.98 412.532C925.236 414.703 924.502 416.579 923.777 418.161C923.052 419.743 922.202 420.941 921.227 421.756ZM958.661 420.835L957.958 423.88L946.221 421.17L946.924 418.125L958.661 420.835ZM949.808 409.17L944.9 430.429L941.634 429.675L946.542 408.416L949.808 409.17ZM963.261 412.276L958.353 433.535L955.087 432.78L959.995 411.521L963.261 412.276ZM970.459 436.854C969.112 436.543 967.948 436.007 966.967 435.246C965.989 434.476 965.288 433.532 964.866 432.414C964.446 431.287 964.396 430.031 964.715 428.647C964.996 427.429 965.464 426.497 966.119 425.851C966.775 425.196 967.555 424.745 968.458 424.496C969.361 424.248 970.321 424.13 971.339 424.141C972.368 424.145 973.391 424.197 974.408 424.296C975.739 424.428 976.815 424.545 977.637 424.647C978.47 424.743 979.095 424.727 979.514 424.6C979.941 424.475 980.215 424.149 980.337 423.623L980.362 423.513C980.677 422.147 980.549 421 979.976 420.071C979.413 419.144 978.379 418.506 976.875 418.159C975.315 417.799 974.014 417.858 972.971 418.337C971.927 418.815 971.136 419.4 970.597 420.092L967.753 418.269C968.605 417.105 969.575 416.27 970.664 415.763C971.764 415.249 972.896 414.976 974.06 414.944C975.236 414.904 976.358 415.008 977.429 415.255C978.112 415.412 978.877 415.677 979.724 416.047C980.583 416.411 981.37 416.937 982.085 417.627C982.81 418.319 983.333 419.232 983.654 420.366C983.976 421.499 983.942 422.91 983.552 424.599L980.318 438.606L977.052 437.851L977.716 434.973L977.55 434.934C977.222 435.344 976.739 435.753 976.101 436.16C975.463 436.566 974.672 436.855 973.729 437.026C972.786 437.197 971.696 437.14 970.459 436.854ZM971.635 434.035C972.927 434.333 974.074 434.331 975.077 434.028C976.089 433.727 976.914 433.228 977.552 432.529C978.198 431.833 978.624 431.042 978.828 430.156L979.519 427.167C979.342 427.301 979.002 427.383 978.5 427.412C978.009 427.435 977.447 427.427 976.814 427.388C976.193 427.342 975.588 427.289 974.999 427.231C974.421 427.166 973.952 427.116 973.591 427.081C972.716 426.996 971.881 426.992 971.085 427.071C970.301 427.143 969.626 427.371 969.061 427.755C968.508 428.133 968.135 428.737 967.943 429.567C967.681 430.702 967.903 431.657 968.608 432.432C969.325 433.201 970.334 433.735 971.635 434.035ZM1000.23 424.017L1000.93 420.972L1018.2 424.96L1017.5 428.005L1010.53 426.395L1006.32 444.609L1003.05 443.855L1007.26 425.641L1000.23 424.017ZM1024.02 434.407L1030.11 435.813C1032.6 436.388 1034.36 437.46 1035.38 439.029C1036.41 440.598 1036.7 442.351 1036.25 444.289C1035.96 445.562 1035.4 446.652 1034.57 447.558C1033.74 448.455 1032.68 449.081 1031.39 449.435C1030.11 449.78 1028.64 449.76 1026.97 449.377L1018.06 447.319L1022.97 426.06L1026.24 426.814L1022.03 445.028L1027.68 446.332C1028.97 446.63 1030.11 446.534 1031.1 446.043C1032.09 445.552 1032.7 444.771 1032.95 443.701C1033.21 442.575 1033.01 441.561 1032.34 440.659C1031.67 439.757 1030.69 439.156 1029.4 438.858L1023.31 437.452L1024.02 434.407ZM1038.05 451.933L1042.95 430.674L1046.22 431.428L1041.31 452.687L1038.05 451.933ZM1055.83 456.504C1053.83 456.044 1052.23 455.178 1051 453.904C1049.78 452.631 1048.97 451.079 1048.58 449.248C1048.19 447.417 1048.23 445.441 1048.72 443.319C1049.22 441.16 1050.06 439.346 1051.23 437.878C1052.42 436.402 1053.84 435.363 1055.48 434.762C1057.14 434.153 1058.93 434.07 1060.85 434.513C1062.34 434.858 1063.62 435.446 1064.7 436.276C1065.77 437.107 1066.57 438.109 1067.11 439.282C1067.64 440.456 1067.85 441.728 1067.73 443.099L1064.46 442.345C1064.43 441.319 1064.08 440.333 1063.39 439.387C1062.72 438.435 1061.66 437.792 1060.22 437.46C1058.95 437.166 1057.76 437.24 1056.64 437.683C1055.54 438.119 1054.59 438.875 1053.77 439.951C1052.97 441.02 1052.39 442.357 1052.02 443.962C1051.64 445.605 1051.57 447.094 1051.8 448.432C1052.05 449.771 1052.57 450.887 1053.36 451.78C1054.16 452.675 1055.21 453.272 1056.5 453.57C1057.35 453.766 1058.16 453.797 1058.92 453.661C1059.68 453.526 1060.36 453.236 1060.97 452.793C1061.58 452.351 1062.07 451.765 1062.45 451.037L1065.72 451.791C1065.25 453.003 1064.53 454.028 1063.57 454.866C1062.62 455.696 1061.48 456.269 1060.15 456.585C1058.84 456.893 1057.4 456.867 1055.83 456.504ZM1081.85 462.046L1086.07 443.777L1080.42 442.473C1079.15 442.179 1078.08 442.243 1077.22 442.666C1076.35 443.088 1075.8 443.816 1075.56 444.849C1075.32 445.864 1075.47 446.738 1075.99 447.47C1076.52 448.205 1077.36 448.706 1078.51 448.972L1085.38 450.557L1084.68 453.602L1077.81 452.017C1076.37 451.684 1075.19 451.144 1074.26 450.396C1073.34 449.648 1072.7 448.738 1072.36 447.667C1072.01 446.587 1071.99 445.396 1072.29 444.095C1072.6 442.785 1073.15 441.727 1073.96 440.923C1074.77 440.118 1075.78 439.588 1076.99 439.334C1078.22 439.082 1079.59 439.132 1081.11 439.484L1089.86 441.503L1084.95 462.762L1081.85 462.046ZM1067.68 458.774L1076.16 449.593L1079.7 450.411L1071.22 459.592L1067.68 458.774ZM1112.24 446.671L1107.34 467.93L1104.07 467.176L1108.98 445.917L1112.24 446.671ZM1108.63 456.508L1107.93 459.553C1107.13 459.659 1106.34 459.735 1105.56 459.778C1104.78 459.813 1103.98 459.798 1103.15 459.732C1102.32 459.658 1101.43 459.51 1100.47 459.288C1098.06 458.732 1096.28 457.635 1095.12 455.998C1093.97 454.362 1093.7 452.244 1094.3 449.642L1095.87 442.832L1099.14 443.586L1097.56 450.396C1097.31 451.485 1097.31 452.428 1097.57 453.225C1097.82 454.022 1098.26 454.673 1098.89 455.178C1099.53 455.684 1100.28 456.039 1101.17 456.243C1102.55 456.563 1103.83 456.727 1105.01 456.736C1106.19 456.737 1107.4 456.661 1108.63 456.508ZM1119.47 471.256C1118.12 470.945 1116.96 470.409 1115.98 469.648C1115 468.878 1114.3 467.934 1113.88 466.816C1113.46 465.689 1113.41 464.433 1113.73 463.049C1114.01 461.831 1114.47 460.899 1115.13 460.253C1115.79 459.598 1116.57 459.146 1117.47 458.898C1118.37 458.65 1119.33 458.531 1120.35 458.543C1121.38 458.547 1122.4 458.599 1123.42 458.697C1124.75 458.83 1125.82 458.947 1126.65 459.049C1127.48 459.144 1128.11 459.128 1128.52 459.001C1128.95 458.876 1129.23 458.551 1129.35 458.025L1129.37 457.914C1129.69 456.549 1129.56 455.401 1128.99 454.472C1128.42 453.545 1127.39 452.908 1125.88 452.561C1124.33 452.201 1123.02 452.26 1121.98 452.738C1120.94 453.217 1120.15 453.802 1119.61 454.494L1116.76 452.671C1117.61 451.507 1118.59 450.671 1119.67 450.165C1120.77 449.651 1121.91 449.378 1123.07 449.345C1124.25 449.306 1125.37 449.409 1126.44 449.656C1127.12 449.814 1127.89 450.078 1128.73 450.449C1129.59 450.812 1130.38 451.339 1131.1 452.029C1131.82 452.721 1132.34 453.634 1132.66 454.767C1132.99 455.901 1132.95 457.312 1132.56 459.001L1129.33 473.007L1126.06 472.253L1126.73 469.374L1126.56 469.336C1126.23 469.746 1125.75 470.155 1125.11 470.561C1124.47 470.968 1123.68 471.257 1122.74 471.428C1121.8 471.599 1120.71 471.541 1119.47 471.256ZM1120.65 468.437C1121.94 468.735 1123.08 468.733 1124.09 468.43C1125.1 468.129 1125.92 467.629 1126.56 466.931C1127.21 466.235 1127.63 465.444 1127.84 464.558L1128.53 461.568C1128.35 461.702 1128.01 461.784 1127.51 461.814C1127.02 461.837 1126.46 461.829 1125.82 461.789C1125.2 461.743 1124.6 461.691 1124.01 461.633C1123.43 461.567 1122.96 461.517 1122.6 461.483C1121.73 461.397 1120.89 461.394 1120.1 461.473C1119.31 461.544 1118.64 461.772 1118.07 462.157C1117.52 462.535 1117.15 463.139 1116.95 463.969C1116.69 465.104 1116.91 466.059 1117.62 466.834C1118.34 467.602 1119.34 468.136 1120.65 468.437ZM1144.41 484.886L1151.16 455.655L1154.32 456.384L1153.54 459.761L1153.92 459.85C1154.25 459.537 1154.69 459.143 1155.25 458.669C1155.81 458.188 1156.55 457.814 1157.46 457.547C1158.38 457.273 1159.53 457.296 1160.91 457.615C1162.7 458.028 1164.18 458.84 1165.34 460.051C1166.49 461.261 1167.27 462.776 1167.65 464.595C1168.04 466.414 1167.98 468.44 1167.46 470.673C1166.94 472.924 1166.11 474.788 1164.96 476.262C1163.82 477.728 1162.46 478.756 1160.9 479.347C1159.33 479.929 1157.66 480.016 1155.89 479.607C1154.53 479.291 1153.49 478.813 1152.77 478.171C1152.05 477.52 1151.54 476.853 1151.23 476.169C1150.93 475.477 1150.7 474.909 1150.55 474.466L1150.27 474.402L1147.68 485.641L1144.41 484.886ZM1151.92 467.026C1151.55 468.632 1151.45 470.102 1151.64 471.438C1151.83 472.765 1152.3 473.878 1153.04 474.779C1153.79 475.671 1154.82 476.268 1156.13 476.57C1157.49 476.886 1158.72 476.789 1159.8 476.28C1160.89 475.764 1161.8 474.946 1162.55 473.825C1163.31 472.697 1163.86 471.377 1164.21 469.864C1164.55 468.369 1164.63 466.968 1164.45 465.662C1164.28 464.349 1163.81 463.236 1163.05 462.321C1162.3 461.4 1161.23 460.779 1159.85 460.46C1158.52 460.153 1157.32 460.232 1156.26 460.697C1155.21 461.153 1154.31 461.927 1153.57 463.02C1152.83 464.104 1152.28 465.439 1151.92 467.026ZM1169.5 490.68C1168.95 490.552 1168.47 490.392 1168.06 490.199C1167.64 490.016 1167.36 489.864 1167.21 489.742L1168.71 487.055C1169.45 487.441 1170.14 487.677 1170.76 487.762C1171.38 487.848 1171.99 487.7 1172.57 487.32C1173.16 486.951 1173.78 486.272 1174.42 485.284L1175.42 483.764L1172.49 460.579L1176.03 461.397L1177.99 479.693L1178.21 479.744L1187.99 464.158L1191.53 464.976L1176.88 487.252C1176.23 488.256 1175.51 489.049 1174.75 489.63C1173.98 490.221 1173.16 490.6 1172.28 490.767C1171.42 490.937 1170.49 490.907 1169.5 490.68ZM1213.46 461.642L1214.66 464.018C1213.87 464.497 1213.02 464.762 1212.12 464.816C1211.21 464.869 1210.22 464.799 1209.13 464.608C1208.05 464.416 1206.85 464.197 1205.52 463.949C1204.03 463.664 1202.73 463.742 1201.61 464.182C1200.48 464.623 1199.52 465.41 1198.7 466.543C1197.88 467.677 1197.19 469.14 1196.62 470.933L1196.9 470.997C1197.93 469.834 1199.15 469.086 1200.57 468.753C1201.98 468.419 1203.42 468.421 1204.88 468.757C1206.54 469.141 1207.95 469.874 1209.1 470.955C1210.25 472.037 1211.03 473.429 1211.46 475.13C1211.88 476.832 1211.83 478.799 1211.32 481.032C1210.81 483.255 1209.97 485.083 1208.8 486.514C1207.64 487.948 1206.25 488.939 1204.63 489.488C1203.02 490.029 1201.26 490.08 1199.36 489.642C1197.46 489.203 1195.9 488.371 1194.67 487.146C1193.45 485.911 1192.65 484.317 1192.26 482.362C1191.88 480.398 1191.99 478.106 1192.6 475.485L1193.12 473.215C1194.21 468.482 1195.85 465.078 1198.02 463.003C1200.2 460.931 1202.91 460.227 1206.17 460.892C1207.32 461.119 1208.35 461.345 1209.24 461.57C1210.13 461.795 1210.92 461.934 1211.6 461.986C1212.29 462.038 1212.91 461.923 1213.46 461.642ZM1200.04 486.707C1201.32 487.004 1202.5 486.935 1203.57 486.502C1204.65 486.072 1205.57 485.328 1206.34 484.271C1207.11 483.205 1207.68 481.874 1208.05 480.278C1208.41 478.727 1208.46 477.349 1208.2 476.143C1207.96 474.94 1207.43 473.944 1206.63 473.157C1205.83 472.37 1204.78 471.826 1203.48 471.525C1202.53 471.306 1201.64 471.27 1200.81 471.419C1199.98 471.567 1199.22 471.893 1198.54 472.397C1197.86 472.901 1197.27 473.571 1196.77 474.407C1196.27 475.245 1195.88 476.243 1195.6 477.402C1195.05 479.782 1195.16 481.817 1195.95 483.505C1196.74 485.192 1198.1 486.26 1200.04 486.707ZM1212.04 492.103L1212.75 489.058L1213.52 489.237C1214.16 489.384 1214.72 489.382 1215.2 489.231C1215.68 489.071 1216.13 488.702 1216.53 488.125C1216.95 487.541 1217.36 486.693 1217.76 485.581C1218.18 484.461 1218.62 483.019 1219.1 481.253L1221.66 471.931L1235.83 475.203L1230.92 496.462L1227.65 495.708L1231.86 477.494L1224.05 475.691L1221.97 483.199C1221.49 484.926 1220.98 486.426 1220.44 487.7C1219.9 488.966 1219.29 489.991 1218.6 490.775C1217.93 491.562 1217.14 492.09 1216.25 492.361C1215.37 492.632 1214.33 492.632 1213.15 492.359L1212.04 492.103ZM1245.72 500.346C1243.68 499.873 1242.01 499.013 1240.74 497.766C1239.47 496.511 1238.63 494.975 1238.2 493.157C1237.79 491.331 1237.83 489.329 1238.33 487.152C1238.84 484.974 1239.68 483.147 1240.85 481.669C1242.04 480.184 1243.46 479.141 1245.1 478.539C1246.76 477.93 1248.55 477.848 1250.47 478.291C1251.57 478.546 1252.62 478.983 1253.62 479.601C1254.61 480.22 1255.46 481.046 1256.15 482.081C1256.85 483.107 1257.3 484.359 1257.52 485.837C1257.73 487.314 1257.61 489.045 1257.15 491.029L1256.83 492.413L1240.44 488.63L1241.09 485.806L1254.16 488.823C1254.44 487.623 1254.44 486.497 1254.18 485.446C1253.93 484.396 1253.42 483.497 1252.67 482.751C1251.93 482.006 1250.97 481.497 1249.79 481.225C1248.49 480.924 1247.29 480.987 1246.19 481.414C1245.1 481.833 1244.18 482.497 1243.44 483.404C1242.7 484.311 1242.19 485.35 1241.92 486.522L1241.48 488.404C1241.11 490.01 1241.08 491.435 1241.37 492.679C1241.68 493.916 1242.26 494.94 1243.13 495.752C1243.99 496.554 1245.08 497.107 1246.4 497.412C1247.26 497.61 1248.06 497.669 1248.81 497.589C1249.57 497.502 1250.26 497.272 1250.88 496.9C1251.5 496.519 1252.04 495.991 1252.48 495.317L1255.44 496.931C1254.86 497.925 1254.08 498.737 1253.11 499.368C1252.14 499.99 1251.03 500.394 1249.77 500.58C1248.51 500.756 1247.16 500.678 1245.72 500.346ZM1263.98 499.02L1278.01 484.942L1281.78 485.811L1276.87 507.07L1273.61 506.316L1277.4 489.874L1263.42 503.964L1259.6 503.082L1264.51 481.823L1267.77 482.578L1263.98 499.02ZM1277.49 477.357L1280.54 478.06C1280.19 479.555 1279.39 480.658 1278.14 481.37C1276.89 482.082 1275.37 482.233 1273.6 481.824C1271.86 481.422 1270.58 480.626 1269.77 479.437C1268.96 478.25 1268.73 476.909 1269.08 475.415L1272.12 476.117C1271.96 476.837 1272.01 477.515 1272.28 478.151C1272.56 478.789 1273.18 479.22 1274.15 479.444C1275.12 479.667 1275.88 479.555 1276.42 479.106C1276.97 478.66 1277.33 478.077 1277.49 477.357Z" fill="#3A999F"/>
<path d="M879.851 398.213L858.592 393.305L860.25 386.122C860.635 384.454 861.251 383.16 862.098 382.24C862.939 381.312 863.927 380.709 865.063 380.432C866.198 380.155 867.392 380.161 868.645 380.45C869.897 380.739 870.977 381.258 871.883 382.007C872.79 382.748 873.426 383.719 873.791 384.918C874.148 386.116 874.136 387.542 873.755 389.196L872.566 394.344L870.282 393.817L871.452 388.752C871.715 387.61 871.73 386.647 871.495 385.864C871.26 385.081 870.843 384.456 870.244 383.99C869.639 383.515 868.911 383.179 868.06 382.983C867.209 382.786 866.411 382.77 865.666 382.933C864.923 383.09 864.281 383.473 863.739 384.084C863.19 384.694 862.782 385.576 862.515 386.732L861.47 391.258L880.445 395.639L879.851 398.213ZM884.135 379.658L862.876 374.75L864.534 367.567C864.919 365.899 865.535 364.605 866.382 363.686C867.223 362.757 868.211 362.154 869.347 361.877C870.482 361.6 871.676 361.606 872.929 361.895C874.181 362.184 875.26 362.703 876.166 363.452C877.074 364.193 877.71 365.164 878.075 366.363C878.432 367.561 878.42 368.987 878.038 370.641L876.85 375.789L874.566 375.262L875.735 370.197C875.999 369.055 876.013 368.092 875.779 367.309C875.544 366.526 875.127 365.901 874.528 365.435C873.923 364.96 873.195 364.624 872.344 364.428C871.493 364.231 870.695 364.215 869.95 364.378C869.207 364.535 868.564 364.918 868.022 365.529C867.473 366.139 867.066 367.022 866.799 368.177L865.754 372.703L884.729 377.084L884.135 379.658ZM890.224 354.61C889.863 356.174 889.13 357.408 888.024 358.312C886.912 359.214 885.476 359.768 883.715 359.974C881.948 360.178 879.909 360.013 877.597 359.48C875.3 358.949 873.405 358.206 871.913 357.249C870.416 356.284 869.365 355.152 868.761 353.853C868.151 352.546 868.026 351.118 868.383 349.568C868.741 348.018 869.48 346.792 870.599 345.892C871.713 344.982 873.153 344.426 874.921 344.222C876.683 344.009 878.712 344.168 881.01 344.698C883.321 345.232 885.226 345.978 886.725 346.936C888.217 347.893 889.266 349.02 889.87 350.319C890.467 351.616 890.585 353.046 890.224 354.61ZM887.94 354.083C888.298 352.533 887.829 351.156 886.532 349.953C885.235 348.75 883.203 347.828 880.435 347.189C878.594 346.764 876.981 346.6 875.596 346.695C874.212 346.784 873.097 347.117 872.249 347.694C871.403 348.264 870.862 349.061 870.626 350.085C870.271 351.622 870.752 352.997 872.067 354.212C873.376 355.426 875.411 356.351 878.172 356.988C880.013 357.413 881.622 357.581 882.999 357.49C884.375 357.4 885.483 357.069 886.322 356.497C887.163 355.919 887.702 355.114 887.94 354.083ZM894.442 336.341C894.081 337.904 893.347 339.138 892.242 340.042C891.13 340.944 889.694 341.498 887.933 341.704C886.166 341.909 884.127 341.744 881.815 341.21C879.518 340.68 877.623 339.936 876.131 338.979C874.633 338.014 873.583 336.882 872.979 335.584C872.369 334.277 872.243 332.848 872.601 331.298C872.959 329.748 873.698 328.523 874.817 327.622C875.93 326.713 877.371 326.156 879.138 325.952C880.9 325.739 882.93 325.898 885.228 326.429C887.539 326.962 889.444 327.708 890.943 328.667C892.435 329.623 893.483 330.751 894.087 332.049C894.685 333.346 894.803 334.777 894.442 336.341ZM892.158 335.813C892.516 334.263 892.046 332.886 890.75 331.683C889.453 330.48 887.421 329.559 884.653 328.92C882.812 328.495 881.199 328.33 879.814 328.426C878.43 328.515 877.315 328.848 876.467 329.425C875.621 329.995 875.08 330.792 874.843 331.816C874.489 333.352 874.969 334.728 876.285 335.943C877.594 337.156 879.629 338.081 882.39 338.719C884.231 339.144 885.84 339.311 887.216 339.221C888.593 339.13 889.701 338.799 890.54 338.228C891.381 337.649 891.92 336.844 892.158 335.813ZM898.659 318.071C898.298 319.635 897.565 320.869 896.46 321.773C895.348 322.675 893.912 323.229 892.151 323.435C890.384 323.639 888.344 323.474 886.033 322.941C883.735 322.41 881.841 321.667 880.349 320.71C878.851 319.745 877.801 318.613 877.196 317.314C876.587 316.008 876.461 314.579 876.819 313.029C877.177 311.479 877.915 310.253 879.035 309.353C880.148 308.444 881.589 307.887 883.356 307.683C885.118 307.47 887.148 307.629 889.446 308.159C891.757 308.693 893.662 309.439 895.161 310.397C896.653 311.354 897.701 312.481 898.305 313.78C898.902 315.077 899.021 316.507 898.659 318.071ZM896.376 317.544C896.734 315.994 896.264 314.617 894.968 313.414C893.671 312.211 891.639 311.289 888.87 310.65C887.03 310.225 885.417 310.061 884.032 310.156C882.648 310.245 881.532 310.578 880.685 311.155C879.839 311.725 879.298 312.522 879.061 313.546C878.707 315.083 879.187 316.458 880.503 317.673C881.812 318.887 883.847 319.812 886.608 320.449C888.449 320.874 890.058 321.042 891.434 320.951C892.811 320.861 893.919 320.53 894.758 319.958C895.598 319.38 896.138 318.575 896.376 317.544ZM902.877 299.802C902.516 301.366 901.783 302.6 900.678 303.503C899.566 304.406 898.129 304.96 896.369 305.165C894.602 305.37 892.562 305.205 890.251 304.671C887.953 304.141 886.059 303.397 884.566 302.441C883.069 301.475 882.018 300.343 881.414 299.045C880.805 297.738 880.679 296.31 881.037 294.759C881.395 293.209 882.133 291.984 883.252 291.083C884.366 290.174 885.807 289.617 887.574 289.413C889.336 289.2 891.366 289.359 893.663 289.89C895.975 290.423 897.88 291.169 899.379 292.128C900.871 293.084 901.919 294.212 902.523 295.51C903.12 296.807 903.238 298.238 902.877 299.802ZM900.594 299.274C900.951 297.724 900.482 296.348 899.185 295.144C897.889 293.941 895.856 293.02 893.088 292.381C891.247 291.956 889.635 291.791 888.249 291.887C886.866 291.976 885.75 292.309 884.903 292.886C884.057 293.456 883.516 294.253 883.279 295.277C882.924 296.813 883.405 298.189 884.721 299.404C886.03 300.617 888.065 301.543 890.826 302.18C892.667 302.605 894.275 302.772 895.652 302.682C897.029 302.592 898.137 302.261 898.976 301.689C899.816 301.11 900.356 300.306 900.594 299.274ZM907.095 281.532C906.734 283.096 906.001 284.33 904.896 285.234C903.784 286.136 902.347 286.69 900.587 286.896C898.819 287.1 896.78 286.936 894.469 286.402C892.171 285.871 890.276 285.128 888.784 284.171C887.287 283.206 886.236 282.074 885.632 280.776C885.023 279.469 884.897 278.04 885.255 276.49C885.613 274.94 886.351 273.714 887.47 272.814C888.584 271.905 890.025 271.348 891.792 271.144C893.554 270.931 895.584 271.09 897.881 271.62C900.193 272.154 902.098 272.9 903.597 273.858C905.089 274.815 906.137 275.943 906.741 277.241C907.338 278.538 907.456 279.968 907.095 281.532ZM904.811 281.005C905.169 279.455 904.7 278.078 903.403 276.875C902.107 275.672 900.074 274.751 897.306 274.112C895.465 273.687 893.852 273.522 892.467 273.618C891.084 273.706 889.968 274.039 889.121 274.616C888.275 275.186 887.733 275.983 887.497 277.008C887.142 278.544 887.623 279.92 888.939 281.134C890.248 282.348 892.283 283.273 895.044 283.911C896.885 284.336 898.493 284.503 899.87 284.413C901.247 284.322 902.354 283.991 903.193 283.42C904.034 282.841 904.573 282.036 904.811 281.005ZM911.313 263.263C910.952 264.827 910.219 266.061 909.114 266.964C908.001 267.867 906.565 268.421 904.805 268.627C903.037 268.831 900.998 268.666 898.686 268.132C896.389 267.602 894.494 266.858 893.002 265.902C891.505 264.936 890.454 263.805 889.85 262.506C889.241 261.199 889.115 259.771 889.473 258.221C889.831 256.67 890.569 255.445 891.688 254.544C892.802 253.635 894.242 253.079 896.01 252.874C897.772 252.662 899.802 252.82 902.099 253.351C904.41 253.884 906.316 254.63 907.815 255.589C909.307 256.546 910.355 257.673 910.959 258.972C911.556 260.268 911.674 261.699 911.313 263.263ZM909.029 262.736C909.387 261.185 908.918 259.809 907.621 258.606C906.324 257.402 904.292 256.481 901.524 255.842C899.683 255.417 898.07 255.252 896.685 255.348C895.301 255.437 894.186 255.77 893.338 256.347C892.492 256.917 891.951 257.714 891.715 258.738C891.36 260.274 891.841 261.65 893.157 262.865C894.465 264.078 896.5 265.004 899.262 265.641C901.102 266.066 902.711 266.233 904.088 266.143C905.464 266.053 906.572 265.722 907.411 265.15C908.252 264.571 908.791 263.767 909.029 262.736ZM915.531 244.993C915.17 246.557 914.437 247.791 913.331 248.695C912.219 249.597 910.783 250.151 909.022 250.357C907.255 250.561 905.216 250.397 902.904 249.863C900.607 249.333 898.712 248.589 897.22 247.632C895.723 246.667 894.672 245.535 894.068 244.237C893.458 242.93 893.333 241.501 893.69 239.951C894.048 238.401 894.787 237.176 895.906 236.275C897.02 235.366 898.46 234.809 900.228 234.605C901.99 234.392 904.019 234.551 906.317 235.081C908.628 235.615 910.533 236.361 912.032 237.319C913.524 238.276 914.573 239.404 915.177 240.702C915.774 241.999 915.892 243.429 915.531 244.993ZM913.247 244.466C913.605 242.916 913.136 241.539 911.839 240.336C910.542 239.133 908.51 238.212 905.742 237.573C903.901 237.148 902.288 236.983 900.903 237.079C899.519 237.168 898.404 237.5 897.556 238.077C896.71 238.647 896.169 239.445 895.933 240.469C895.578 242.005 896.059 243.381 897.374 244.596C898.683 245.809 900.718 246.734 903.479 247.372C905.32 247.797 906.929 247.964 908.306 247.874C909.682 247.783 910.79 247.452 911.629 246.881C912.47 246.302 913.009 245.497 913.247 244.466ZM919.749 226.724C919.388 228.288 918.654 229.522 917.549 230.426C916.437 231.328 915.001 231.882 913.24 232.088C911.473 232.292 909.434 232.127 907.122 231.594C904.825 231.063 902.93 230.32 901.438 229.363C899.94 228.398 898.89 227.266 898.286 225.967C897.676 224.66 897.55 223.232 897.908 221.682C898.266 220.132 899.005 218.906 900.124 218.006C901.237 217.096 902.678 216.54 904.445 216.335C906.207 216.123 908.237 216.282 910.535 216.812C912.846 217.346 914.751 218.092 916.25 219.05C917.742 220.007 918.79 221.134 919.394 222.433C919.992 223.73 920.11 225.16 919.749 226.724ZM917.465 226.197C917.823 224.647 917.353 223.27 916.057 222.067C914.76 220.863 912.728 219.942 909.96 219.303C908.119 218.878 906.506 218.714 905.121 218.809C903.737 218.898 902.622 219.231 901.774 219.808C900.928 220.378 900.387 221.175 900.15 222.199C899.796 223.736 900.276 225.111 901.592 226.326C902.901 227.539 904.936 228.465 907.697 229.102C909.538 229.527 911.147 229.695 912.523 229.604C913.9 229.514 915.008 229.183 915.847 228.611C916.688 228.033 917.227 227.228 917.465 226.197ZM923.966 208.454C923.605 210.018 922.872 211.252 921.767 212.156C920.655 213.058 919.219 213.612 917.458 213.818C915.691 214.022 913.651 213.858 911.34 213.324C909.042 212.794 907.148 212.05 905.656 211.093C904.158 210.128 903.108 208.996 902.503 207.698C901.894 206.391 901.768 204.962 902.126 203.412C902.484 201.862 903.222 200.637 904.342 199.736C905.455 198.827 906.896 198.27 908.663 198.066C910.425 197.853 912.455 198.012 914.753 198.543C917.064 199.076 918.969 199.822 920.468 200.78C921.96 201.737 923.008 202.865 923.612 204.163C924.209 205.46 924.328 206.89 923.966 208.454ZM921.683 207.927C922.041 206.377 921.571 205 920.275 203.797C918.978 202.594 916.946 201.673 914.177 201.034C912.337 200.609 910.724 200.444 909.339 200.54C907.955 200.629 906.839 200.962 905.992 201.538C905.146 202.109 904.605 202.906 904.368 203.93C904.014 205.466 904.494 206.842 905.81 208.057C907.119 209.27 909.154 210.195 911.915 210.833C913.756 211.258 915.365 211.425 916.741 211.335C918.118 211.244 919.226 210.913 920.065 210.342C920.905 209.763 921.445 208.958 921.683 207.927Z" fill="#3A999F"/>
<path d="M108.851 370.213L87.5921 365.305L89.2505 358.122C89.6355 356.454 90.2513 355.16 91.0978 354.24C91.9389 353.312 92.9273 352.709 94.0628 352.432C95.1983 352.155 96.3923 352.161 97.6449 352.45C98.8975 352.739 99.9767 353.258 100.883 354.007C101.79 354.748 102.426 355.719 102.791 356.918C103.148 358.116 103.136 359.542 102.755 361.196L101.566 366.344L99.2822 365.817L100.452 360.752C100.715 359.61 100.73 358.647 100.495 357.864C100.26 357.081 99.8433 356.456 99.244 355.99C98.6393 355.515 97.9113 355.179 97.0601 354.983C96.209 354.786 95.411 354.77 94.6662 354.933C93.9231 355.09 93.2805 355.473 92.7385 356.084C92.1896 356.694 91.7818 357.576 91.515 358.732L90.4701 363.258L109.445 367.639L108.851 370.213ZM113.135 351.658L91.8758 346.75L93.5342 339.567C93.9192 337.899 94.535 336.605 95.3815 335.686C96.2227 334.757 97.211 334.154 98.3465 333.877C99.482 333.6 100.676 333.606 101.929 333.895C103.181 334.184 104.26 334.703 105.166 335.452C106.074 336.193 106.71 337.164 107.075 338.363C107.432 339.561 107.42 340.987 107.038 342.641L105.85 347.789L103.566 347.262L104.735 342.197C104.999 341.055 105.013 340.092 104.779 339.309C104.544 338.526 104.127 337.901 103.528 337.435C102.923 336.96 102.195 336.624 101.344 336.428C100.493 336.231 99.6947 336.215 98.95 336.378C98.2068 336.535 97.5642 336.918 97.0223 337.529C96.4734 338.139 96.0655 339.022 95.7987 340.177L94.7538 344.703L113.729 349.084L113.135 351.658ZM119.224 326.61C118.863 328.174 118.13 329.408 117.024 330.312C115.912 331.214 114.476 331.768 112.715 331.974C110.948 332.178 108.909 332.013 106.597 331.48C104.3 330.949 102.405 330.206 100.913 329.249C99.4156 328.284 98.3649 327.152 97.7608 325.853C97.1514 324.546 97.0256 323.118 97.3835 321.568C97.7414 320.018 98.4798 318.792 99.5989 317.892C100.713 316.982 102.153 316.426 103.921 316.222C105.683 316.009 107.712 316.168 110.01 316.698C112.321 317.232 114.226 317.978 115.725 318.936C117.217 319.893 118.266 321.02 118.87 322.319C119.467 323.616 119.585 325.046 119.224 326.61ZM116.94 326.083C117.298 324.533 116.829 323.156 115.532 321.953C114.235 320.75 112.203 319.828 109.435 319.189C107.594 318.764 105.981 318.6 104.596 318.695C103.212 318.784 102.097 319.117 101.249 319.694C100.403 320.264 99.8621 321.061 99.6256 322.085C99.271 323.622 99.7515 324.997 101.067 326.212C102.376 327.426 104.411 328.351 107.172 328.988C109.013 329.413 110.622 329.581 111.999 329.49C113.375 329.4 114.483 329.069 115.322 328.497C116.163 327.919 116.702 327.114 116.94 326.083ZM123.442 308.341C123.081 309.904 122.347 311.138 121.242 312.042C120.13 312.944 118.694 313.498 116.933 313.704C115.166 313.909 113.127 313.744 110.815 313.21C108.518 312.68 106.623 311.936 105.131 310.979C103.633 310.014 102.583 308.882 101.979 307.584C101.369 306.277 101.243 304.848 101.601 303.298C101.959 301.748 102.698 300.523 103.817 299.622C104.93 298.713 106.371 298.156 108.138 297.952C109.9 297.739 111.93 297.898 114.228 298.429C116.539 298.962 118.444 299.708 119.943 300.667C121.435 301.623 122.483 302.751 123.087 304.049C123.685 305.346 123.803 306.777 123.442 308.341ZM121.158 307.813C121.516 306.263 121.046 304.886 119.75 303.683C118.453 302.48 116.421 301.559 113.653 300.92C111.812 300.495 110.199 300.33 108.814 300.426C107.43 300.515 106.315 300.848 105.467 301.425C104.621 301.995 104.08 302.792 103.843 303.816C103.489 305.352 103.969 306.728 105.285 307.943C106.594 309.156 108.629 310.081 111.39 310.719C113.231 311.144 114.84 311.311 116.216 311.221C117.593 311.13 118.701 310.799 119.54 310.228C120.381 309.649 120.92 308.844 121.158 307.813ZM127.659 290.071C127.298 291.635 126.565 292.869 125.46 293.773C124.348 294.675 122.912 295.229 121.151 295.435C119.384 295.639 117.344 295.474 115.033 294.941C112.735 294.41 110.841 293.667 109.349 292.71C107.851 291.745 106.801 290.613 106.196 289.314C105.587 288.008 105.461 286.579 105.819 285.029C106.177 283.479 106.915 282.253 108.035 281.353C109.148 280.444 110.589 279.887 112.356 279.683C114.118 279.47 116.148 279.629 118.446 280.159C120.757 280.693 122.662 281.439 124.161 282.397C125.653 283.354 126.701 284.481 127.305 285.78C127.902 287.077 128.021 288.507 127.659 290.071ZM125.376 289.544C125.734 287.994 125.264 286.617 123.968 285.414C122.671 284.211 120.639 283.289 117.87 282.65C116.03 282.225 114.417 282.061 113.032 282.156C111.648 282.245 110.532 282.578 109.685 283.155C108.839 283.725 108.298 284.522 108.061 285.546C107.707 287.083 108.187 288.458 109.503 289.673C110.812 290.887 112.847 291.812 115.608 292.449C117.449 292.874 119.058 293.042 120.434 292.951C121.811 292.861 122.919 292.53 123.758 291.958C124.598 291.38 125.138 290.575 125.376 289.544ZM131.877 271.802C131.516 273.366 130.783 274.6 129.678 275.503C128.566 276.406 127.129 276.96 125.369 277.165C123.602 277.37 121.562 277.205 119.251 276.671C116.953 276.141 115.059 275.397 113.566 274.441C112.069 273.475 111.018 272.343 110.414 271.045C109.805 269.738 109.679 268.31 110.037 266.759C110.395 265.209 111.133 263.984 112.252 263.083C113.366 262.174 114.807 261.617 116.574 261.413C118.336 261.2 120.366 261.359 122.663 261.89C124.975 262.423 126.88 263.169 128.379 264.128C129.871 265.084 130.919 266.212 131.523 267.51C132.12 268.807 132.238 270.238 131.877 271.802ZM129.594 271.274C129.951 269.724 129.482 268.348 128.185 267.144C126.889 265.941 124.856 265.02 122.088 264.381C120.247 263.956 118.635 263.791 117.249 263.887C115.866 263.976 114.75 264.309 113.903 264.886C113.057 265.456 112.516 266.253 112.279 267.277C111.924 268.813 112.405 270.189 113.721 271.404C115.03 272.617 117.065 273.543 119.826 274.18C121.667 274.605 123.275 274.772 124.652 274.682C126.029 274.592 127.137 274.261 127.976 273.689C128.816 273.11 129.356 272.306 129.594 271.274ZM136.095 253.532C135.734 255.096 135.001 256.33 133.896 257.234C132.784 258.136 131.347 258.69 129.587 258.896C127.819 259.1 125.78 258.936 123.469 258.402C121.171 257.871 119.276 257.128 117.784 256.171C116.287 255.206 115.236 254.074 114.632 252.776C114.023 251.469 113.897 250.04 114.255 248.49C114.613 246.94 115.351 245.714 116.47 244.814C117.584 243.905 119.025 243.348 120.792 243.144C122.554 242.931 124.584 243.09 126.881 243.62C129.193 244.154 131.098 244.9 132.597 245.858C134.089 246.815 135.137 247.943 135.741 249.241C136.338 250.538 136.456 251.968 136.095 253.532ZM133.811 253.005C134.169 251.455 133.7 250.078 132.403 248.875C131.107 247.672 129.074 246.751 126.306 246.112C124.465 245.687 122.852 245.522 121.467 245.618C120.084 245.706 118.968 246.039 118.121 246.616C117.275 247.186 116.733 247.983 116.497 249.008C116.142 250.544 116.623 251.92 117.939 253.134C119.248 254.348 121.283 255.273 124.044 255.911C125.885 256.336 127.493 256.503 128.87 256.413C130.247 256.322 131.354 255.991 132.193 255.42C133.034 254.841 133.573 254.036 133.811 253.005ZM140.313 235.263C139.952 236.827 139.219 238.061 138.114 238.964C137.001 239.867 135.565 240.421 133.805 240.627C132.037 240.831 129.998 240.666 127.686 240.132C125.389 239.602 123.494 238.858 122.002 237.902C120.505 236.936 119.454 235.805 118.85 234.506C118.241 233.199 118.115 231.771 118.473 230.221C118.831 228.67 119.569 227.445 120.688 226.544C121.802 225.635 123.242 225.079 125.01 224.874C126.772 224.662 128.802 224.82 131.099 225.351C133.41 225.884 135.316 226.63 136.815 227.589C138.307 228.546 139.355 229.673 139.959 230.972C140.556 232.268 140.674 233.699 140.313 235.263ZM138.029 234.736C138.387 233.185 137.918 231.809 136.621 230.606C135.324 229.402 133.292 228.481 130.524 227.842C128.683 227.417 127.07 227.252 125.685 227.348C124.301 227.437 123.186 227.77 122.338 228.347C121.492 228.917 120.951 229.714 120.715 230.738C120.36 232.274 120.841 233.65 122.157 234.865C123.465 236.078 125.5 237.004 128.262 237.641C130.102 238.066 131.711 238.233 133.088 238.143C134.464 238.053 135.572 237.722 136.411 237.15C137.252 236.571 137.791 235.767 138.029 234.736ZM144.531 216.993C144.17 218.557 143.437 219.791 142.331 220.695C141.219 221.597 139.783 222.151 138.022 222.357C136.255 222.561 134.216 222.397 131.904 221.863C129.607 221.333 127.712 220.589 126.22 219.632C124.723 218.667 123.672 217.535 123.068 216.237C122.458 214.93 122.333 213.501 122.69 211.951C123.048 210.401 123.787 209.176 124.906 208.275C126.02 207.366 127.46 206.809 129.228 206.605C130.99 206.392 133.019 206.551 135.317 207.081C137.628 207.615 139.533 208.361 141.032 209.319C142.524 210.276 143.573 211.404 144.177 212.702C144.774 213.999 144.892 215.429 144.531 216.993ZM142.247 216.466C142.605 214.916 142.136 213.539 140.839 212.336C139.542 211.133 137.51 210.212 134.742 209.573C132.901 209.148 131.288 208.983 129.903 209.079C128.519 209.168 127.404 209.5 126.556 210.077C125.71 210.647 125.169 211.445 124.933 212.469C124.578 214.005 125.059 215.381 126.374 216.596C127.683 217.809 129.718 218.734 132.479 219.372C134.32 219.797 135.929 219.964 137.306 219.874C138.682 219.783 139.79 219.452 140.629 218.881C141.47 218.302 142.009 217.497 142.247 216.466ZM148.749 198.724C148.388 200.288 147.654 201.522 146.549 202.426C145.437 203.328 144.001 203.882 142.24 204.088C140.473 204.292 138.434 204.127 136.122 203.594C133.825 203.063 131.93 202.32 130.438 201.363C128.94 200.398 127.89 199.266 127.286 197.967C126.676 196.66 126.55 195.232 126.908 193.682C127.266 192.132 128.005 190.906 129.124 190.006C130.237 189.096 131.678 188.54 133.445 188.335C135.207 188.123 137.237 188.282 139.535 188.812C141.846 189.346 143.751 190.092 145.25 191.05C146.742 192.007 147.79 193.134 148.394 194.433C148.992 195.73 149.11 197.16 148.749 198.724ZM146.465 198.197C146.823 196.647 146.353 195.27 145.057 194.067C143.76 192.863 141.728 191.942 138.96 191.303C137.119 190.878 135.506 190.714 134.121 190.809C132.737 190.898 131.622 191.231 130.774 191.808C129.928 192.378 129.387 193.175 129.15 194.199C128.796 195.736 129.276 197.111 130.592 198.326C131.901 199.539 133.936 200.465 136.697 201.102C138.538 201.527 140.147 201.695 141.523 201.604C142.9 201.514 144.008 201.183 144.847 200.611C145.688 200.033 146.227 199.228 146.465 198.197ZM152.966 180.454C152.605 182.018 151.872 183.252 150.767 184.156C149.655 185.058 148.219 185.612 146.458 185.818C144.691 186.022 142.651 185.858 140.34 185.324C138.042 184.794 136.148 184.05 134.656 183.093C133.158 182.128 132.108 180.996 131.503 179.698C130.894 178.391 130.768 176.962 131.126 175.412C131.484 173.862 132.222 172.637 133.342 171.736C134.455 170.827 135.896 170.27 137.663 170.066C139.425 169.853 141.455 170.012 143.753 170.543C146.064 171.076 147.969 171.822 149.468 172.78C150.96 173.737 152.008 174.865 152.612 176.163C153.209 177.46 153.328 178.89 152.966 180.454ZM150.683 179.927C151.041 178.377 150.571 177 149.275 175.797C147.978 174.594 145.946 173.673 143.177 173.034C141.337 172.609 139.724 172.444 138.339 172.54C136.955 172.629 135.839 172.962 134.992 173.538C134.146 174.109 133.605 174.906 133.368 175.93C133.014 177.466 133.494 178.842 134.81 180.057C136.119 181.27 138.154 182.195 140.915 182.833C142.756 183.258 144.365 183.425 145.741 183.335C147.118 183.244 148.226 182.913 149.065 182.342C149.905 181.763 150.445 180.958 150.683 179.927Z" fill="#442020"/>
<rect x="1181.3" y="381.73" width="35" height="52" transform="rotate(13 1181.3 381.73)" fill="#3A999F"/>
<rect x="1198.81" y="335.41" width="23" height="70.1474" transform="rotate(13 1198.81 335.41)" fill="#3A999F"/>
<rect x="1211.44" y="300.438" width="15.018" height="109.097" transform="rotate(13 1211.44 300.438)" fill="#3A999F"/>
</g>
<defs>
<clipPath id="clip0_0_1">
<rect width="1569" height="668" fill="white"/>
</clipPath>
</defs>
</svg>
